<?xml version="1.0" encoding="UTF-8"?>
<svg id="_图层_1" xmlns="http://www.w3.org/2000/svg" version="1.1" viewBox="0 0 18 18">
  <!-- Generator: Adobe Illustrator 29.4.0, SVG Export Plug-In . SVG Version: 2.1.0 Build 152)  -->
  <defs>
    <style>
      .st0 {
        fill: none;
      }

      .st1 {
        fill: lime;
      }

      .st2 {
        fill: blue;
      }

      .st3 {
        fill: red;
      }
    </style>
  </defs>
  <rect class="st0" width="18" height="18"/>
  <rect id="px_0_0" class="st0" width="1" height="1"/>
  <rect id="px_1_0" x="1" width="1" height="1"/>
  <rect id="px_2_0" x="2" width="1" height="1"/>
  <rect id="px_3_0" x="3" width="1" height="1"/>
  <rect id="px_4_0" x="4" width="1" height="1"/>
  <rect id="px_5_0" x="5" width="1" height="1"/>
  <rect id="px_6_0" x="6" width="1" height="1"/>
  <rect id="px_7_0" x="7" width="1" height="1"/>
  <rect id="px_8_0" class="st0" x="8" width="1" height="1"/>
  <rect id="px_9_0" class="st0" x="9" width="1" height="1"/>
  <rect id="px_10_0" class="st0" x="10" width="1" height="1"/>
  <rect id="px_11_0" class="st0" x="11" width="1" height="1"/>
  <rect id="px_12_0" class="st0" x="12" width="1" height="1"/>
  <rect id="px_13_0" class="st0" x="13" width="1" height="1"/>
  <rect id="px_14_0" class="st0" x="14" width="1" height="1"/>
  <rect id="px_15_0" class="st0" x="15" width="1" height="1"/>
  <rect id="px_16_0" class="st0" x="16" width="1" height="1"/>
  <rect id="px_17_0" class="st0" x="17" width="1" height="1"/>
  <rect id="px_0_1" class="st0" y="1" width="1" height="1"/>
  <rect id="px_1_1" x="1" y="1" width="1" height="1"/>
  <rect id="px_2_1" class="st0" x="2" y="1" width="1" height="1"/>
  <rect id="px_3_1" class="st0" x="3" y="1" width="1" height="1"/>
  <rect id="px_4_1" class="st0" x="4" y="1" width="1" height="1"/>
  <rect id="px_5_1" class="st0" x="5" y="1" width="1" height="1"/>
  <rect id="px_6_1" class="st0" x="6" y="1" width="1" height="1"/>
  <rect id="px_7_1" x="7" y="1" width="1" height="1"/>
  <rect id="px_8_1" class="st0" x="8" y="1" width="1" height="1"/>
  <rect id="px_9_1" class="st0" x="9" y="1" width="1" height="1"/>
  <rect id="px_10_1" class="st0" x="10" y="1" width="1" height="1"/>
  <rect id="px_11_1" class="st0" x="11" y="1" width="1" height="1"/>
  <rect id="px_12_1" class="st0" x="12" y="1" width="1" height="1"/>
  <rect id="px_13_1" class="st0" x="13" y="1" width="1" height="1"/>
  <rect id="px_14_1" class="st0" x="14" y="1" width="1" height="1"/>
  <rect id="px_15_1" class="st0" x="15" y="1" width="1" height="1"/>
  <rect id="px_16_1" class="st0" x="16" y="1" width="1" height="1"/>
  <rect id="px_17_1" class="st0" x="17" y="1" width="1" height="1"/>
  <rect id="px_0_2" class="st0" y="2" width="1" height="1"/>
  <rect id="px_1_2" x="1" y="2" width="1" height="1"/>
  <rect id="px_2_2" class="st0" x="2" y="2" width="1" height="1"/>
  <rect id="px_3_2" class="st3" x="3" y="2" width="1" height="1"/>
  <rect id="px_4_2" class="st3" x="4" y="2" width="1" height="1"/>
  <rect id="px_5_2" class="st3" x="5" y="2" width="1" height="1"/>
  <rect id="px_6_2" class="st0" x="6" y="2" width="1" height="1"/>
  <rect id="px_7_2" x="7" y="2" width="1" height="1"/>
  <rect id="px_8_2" class="st0" x="8" y="2" width="1" height="1"/>
  <rect id="px_9_2" class="st0" x="9" y="2" width="1" height="1"/>
  <rect id="px_10_2" class="st0" x="10" y="2" width="1" height="1"/>
  <rect id="px_11_2" class="st0" x="11" y="2" width="1" height="1"/>
  <rect id="px_12_2" class="st0" x="12" y="2" width="1" height="1"/>
  <rect id="px_13_2" class="st0" x="13" y="2" width="1" height="1"/>
  <rect id="px_14_2" class="st0" x="14" y="2" width="1" height="1"/>
  <rect id="px_15_2" class="st0" x="15" y="2" width="1" height="1"/>
  <rect id="px_16_2" class="st0" x="16" y="2" width="1" height="1"/>
  <rect id="px_17_2" class="st0" x="17" y="2" width="1" height="1"/>
  <rect id="px_0_3" class="st0" y="3" width="1" height="1"/>
  <rect id="px_1_3" x="1" y="3" width="1" height="1"/>
  <rect id="px_2_3" class="st0" x="2" y="3" width="1" height="1"/>
  <rect id="px_3_3" class="st3" x="3" y="3" width="1" height="1"/>
  <rect id="px_4_3" class="st3" x="4" y="3" width="1" height="1"/>
  <rect id="px_5_3" class="st3" x="5" y="3" width="1" height="1"/>
  <rect id="px_6_3" class="st0" x="6" y="3" width="1" height="1"/>
  <rect id="px_7_3" x="7" y="3" width="1" height="1"/>
  <rect id="px_8_3" class="st0" x="8" y="3" width="1" height="1"/>
  <rect id="px_9_3" class="st0" x="9" y="3" width="1" height="1"/>
  <rect id="px_10_3" class="st0" x="10" y="3" width="1" height="1"/>
  <rect id="px_11_3" class="st0" x="11" y="3" width="1" height="1"/>
  <rect id="px_12_3" class="st0" x="12" y="3" width="1" height="1"/>
  <rect id="px_13_3" class="st0" x="13" y="3" width="1" height="1"/>
  <rect id="px_14_3" class="st0" x="14" y="3" width="1" height="1"/>
  <rect id="px_15_3" class="st0" x="15" y="3" width="1" height="1"/>
  <rect id="px_16_3" class="st0" x="16" y="3" width="1" height="1"/>
  <rect id="px_17_3" class="st0" x="17" y="3" width="1" height="1"/>
  <rect id="px_0_4" class="st0" y="4" width="1" height="1"/>
  <rect id="px_1_4" x="1" y="4" width="1" height="1"/>
  <rect id="px_2_4" class="st0" x="2" y="4" width="1" height="1"/>
  <rect id="px_3_4" class="st3" x="3" y="4" width="1" height="1"/>
  <rect id="px_4_4" class="st3" x="4" y="4" width="1" height="1"/>
  <rect id="px_5_4" class="st3" x="5" y="4" width="1" height="1"/>
  <rect id="px_6_4" class="st0" x="6" y="4" width="1" height="1"/>
  <rect id="px_7_4" x="7" y="4" width="1" height="1"/>
  <rect id="px_8_4" class="st0" x="8" y="4" width="1" height="1"/>
  <rect id="px_9_4" class="st0" x="9" y="4" width="1" height="1"/>
  <rect id="px_10_4" class="st0" x="10" y="4" width="1" height="1"/>
  <rect id="px_11_4" class="st0" x="11" y="4" width="1" height="1"/>
  <rect id="px_12_4" class="st0" x="12" y="4" width="1" height="1"/>
  <rect id="px_13_4" class="st0" x="13" y="4" width="1" height="1"/>
  <rect id="px_14_4" class="st0" x="14" y="4" width="1" height="1"/>
  <rect id="px_15_4" class="st0" x="15" y="4" width="1" height="1"/>
  <rect id="px_16_4" class="st0" x="16" y="4" width="1" height="1"/>
  <rect id="px_17_4" class="st0" x="17" y="4" width="1" height="1"/>
  <rect id="px_0_5" class="st0" y="5" width="1" height="1"/>
  <rect id="px_1_5" x="1" y="5" width="1" height="1"/>
  <rect id="px_2_5" class="st0" x="2" y="5" width="1" height="1"/>
  <rect id="px_3_5" class="st0" x="3" y="5" width="1" height="1"/>
  <rect id="px_4_5" class="st0" x="4" y="5" width="1" height="1"/>
  <rect id="px_5_5" class="st1" x="5" y="5" width="1" height="1"/>
  <rect id="px_6_5" class="st0" x="6" y="5" width="1" height="1"/>
  <rect id="px_7_5" x="7" y="5" width="1" height="1"/>
  <rect id="px_8_5" class="st0" x="8" y="5" width="1" height="1"/>
  <rect id="px_9_5" class="st0" x="9" y="5" width="1" height="1"/>
  <rect id="px_10_5" class="st0" x="10" y="5" width="1" height="1"/>
  <rect id="px_11_5" class="st0" x="11" y="5" width="1" height="1"/>
  <rect id="px_12_5" class="st0" x="12" y="5" width="1" height="1"/>
  <rect id="px_13_5" class="st0" x="13" y="5" width="1" height="1"/>
  <rect id="px_14_5" class="st0" x="14" y="5" width="1" height="1"/>
  <rect id="px_15_5" class="st0" x="15" y="5" width="1" height="1"/>
  <rect id="px_16_5" class="st0" x="16" y="5" width="1" height="1"/>
  <rect id="px_17_5" class="st0" x="17" y="5" width="1" height="1"/>
  <rect id="px_0_6" class="st0" y="6" width="1" height="1"/>
  <rect id="px_1_6" x="1" y="6" width="1" height="1"/>
  <rect id="px_2_6" x="2" y="6" width="1" height="1"/>
  <rect id="px_3_6" x="3" y="6" width="1" height="1"/>
  <rect id="px_4_6" x="4" y="6" width="1" height="1"/>
  <rect id="px_5_6" x="5" y="6" width="1" height="1"/>
  <rect id="px_6_6" x="6" y="6" width="1" height="1"/>
  <rect id="px_7_6" x="7" y="6" width="1" height="1"/>
  <rect id="px_8_6" class="st0" x="8" y="6" width="1" height="1"/>
  <rect id="px_9_6" class="st0" x="9" y="6" width="1" height="1"/>
  <rect id="px_10_6" class="st0" x="10" y="6" width="1" height="1"/>
  <rect id="px_11_6" class="st0" x="11" y="6" width="1" height="1"/>
  <rect id="px_12_6" class="st0" x="12" y="6" width="1" height="1"/>
  <rect id="px_13_6" class="st0" x="13" y="6" width="1" height="1"/>
  <rect id="px_14_6" class="st0" x="14" y="6" width="1" height="1"/>
  <rect id="px_15_6" class="st0" x="15" y="6" width="1" height="1"/>
  <rect id="px_16_6" class="st0" x="16" y="6" width="1" height="1"/>
  <rect id="px_17_6" class="st0" x="17" y="6" width="1" height="1"/>
  <rect id="px_0_7" class="st0" y="7" width="1" height="1"/>
  <rect id="px_1_7" class="st0" x="1" y="7" width="1" height="1"/>
  <rect id="px_2_7" class="st0" x="2" y="7" width="1" height="1"/>
  <rect id="px_3_7" class="st0" x="3" y="7" width="1" height="1"/>
  <rect id="px_4_7" class="st0" x="4" y="7" width="1" height="1"/>
  <rect id="px_5_7" class="st0" x="5" y="7" width="1" height="1"/>
  <rect id="px_6_7" class="st0" x="6" y="7" width="1" height="1"/>
  <rect id="px_7_7" class="st1" x="7" y="7" width="1" height="1"/>
  <rect id="px_8_7" class="st0" x="8" y="7" width="1" height="1"/>
  <rect id="px_9_7" class="st0" x="9" y="7" width="1" height="1"/>
  <rect id="px_10_7" class="st0" x="10" y="7" width="1" height="1"/>
  <rect id="px_11_7" class="st0" x="11" y="7" width="1" height="1"/>
  <rect id="px_12_7" class="st0" x="12" y="7" width="1" height="1"/>
  <rect id="px_13_7" class="st0" x="13" y="7" width="1" height="1"/>
  <rect id="px_14_7" class="st0" x="14" y="7" width="1" height="1"/>
  <rect id="px_15_7" class="st0" x="15" y="7" width="1" height="1"/>
  <rect id="px_16_7" class="st0" x="16" y="7" width="1" height="1"/>
  <rect id="px_17_7" class="st0" x="17" y="7" width="1" height="1"/>
  <rect id="px_0_8" class="st0" y="8" width="1" height="1"/>
  <rect id="px_1_8" class="st0" x="1" y="8" width="1" height="1"/>
  <rect id="px_2_8" class="st0" x="2" y="8" width="1" height="1"/>
  <rect id="px_3_8" class="st0" x="3" y="8" width="1" height="1"/>
  <rect id="px_4_8" class="st0" x="4" y="8" width="1" height="1"/>
  <rect id="px_5_8" class="st0" x="5" y="8" width="1" height="1"/>
  <rect id="px_6_8" class="st0" x="6" y="8" width="1" height="1"/>
  <rect id="px_7_8" class="st0" x="7" y="8" width="1" height="1"/>
  <rect id="px_8_8" class="st0" x="8" y="8" width="1" height="1"/>
  <rect id="px_9_8" class="st0" x="9" y="8" width="1" height="1"/>
  <rect id="px_10_8" class="st0" x="10" y="8" width="1" height="1"/>
  <rect id="px_11_8" class="st0" x="11" y="8" width="1" height="1"/>
  <rect id="px_12_8" class="st0" x="12" y="8" width="1" height="1"/>
  <rect id="px_13_8" class="st0" x="13" y="8" width="1" height="1"/>
  <rect id="px_14_8" class="st0" x="14" y="8" width="1" height="1"/>
  <rect id="px_15_8" class="st0" x="15" y="8" width="1" height="1"/>
  <rect id="px_16_8" class="st0" x="16" y="8" width="1" height="1"/>
  <rect id="px_17_8" class="st0" x="17" y="8" width="1" height="1"/>
  <rect id="px_0_9" class="st0" y="9" width="1" height="1"/>
  <rect id="px_1_9" class="st0" x="1" y="9" width="1" height="1"/>
  <rect id="px_2_9" class="st0" x="2" y="9" width="1" height="1"/>
  <rect id="px_3_9" x="3" y="9" width="1" height="1"/>
  <rect id="px_4_9" class="st0" x="4" y="9" width="1" height="1"/>
  <rect id="px_5_9" class="st0" x="5" y="9" width="1" height="1"/>
  <rect id="px_6_9" class="st0" x="6" y="9" width="1" height="1"/>
  <rect id="px_7_9" x="7" y="9" width="1" height="1"/>
  <rect id="px_8_9" class="st0" x="8" y="9" width="1" height="1"/>
  <rect id="px_9_9" class="st1" x="9" y="9" width="1" height="1"/>
  <rect id="px_10_9" class="st0" x="10" y="9" width="1" height="1"/>
  <rect id="px_11_9" class="st0" x="11" y="9" width="1" height="1"/>
  <rect id="px_12_9" class="st0" x="12" y="9" width="1" height="1"/>
  <rect id="px_13_9" class="st0" x="13" y="9" width="1" height="1"/>
  <rect id="px_14_9" class="st0" x="14" y="9" width="1" height="1"/>
  <rect id="px_15_9" class="st0" x="15" y="9" width="1" height="1"/>
  <rect id="px_16_9" class="st0" x="16" y="9" width="1" height="1"/>
  <rect id="px_17_9" class="st0" x="17" y="9" width="1" height="1"/>
  <rect id="px_0_10" class="st0" y="10" width="1" height="1"/>
  <rect id="px_1_10" class="st0" x="1" y="10" width="1" height="1"/>
  <rect id="px_2_10" class="st0" x="2" y="10" width="1" height="1"/>
  <rect id="px_3_10" class="st0" x="3" y="10" width="1" height="1"/>
  <rect id="px_4_10" x="4" y="10" width="1" height="1"/>
  <rect id="px_5_10" class="st0" x="5" y="10" width="1" height="1"/>
  <rect id="px_6_10" x="6" y="10" width="1" height="1"/>
  <rect id="px_7_10" class="st0" x="7" y="10" width="1" height="1"/>
  <rect id="px_8_10" class="st0" x="8" y="10" width="1" height="1"/>
  <rect id="px_9_10" class="st0" x="9" y="10" width="1" height="1"/>
  <rect id="px_10_10" class="st0" x="10" y="10" width="1" height="1"/>
  <rect id="px_11_10" class="st0" x="11" y="10" width="1" height="1"/>
  <rect id="px_12_10" class="st0" x="12" y="10" width="1" height="1"/>
  <rect id="px_13_10" class="st0" x="13" y="10" width="1" height="1"/>
  <rect id="px_14_10" class="st0" x="14" y="10" width="1" height="1"/>
  <rect id="px_15_10" class="st0" x="15" y="10" width="1" height="1"/>
  <rect id="px_16_10" class="st0" x="16" y="10" width="1" height="1"/>
  <rect id="px_17_10" class="st0" x="17" y="10" width="1" height="1"/>
  <rect id="px_0_11" class="st0" y="11" width="1" height="1"/>
  <rect id="px_1_11" class="st0" x="1" y="11" width="1" height="1"/>
  <rect id="px_2_11" class="st0" x="2" y="11" width="1" height="1"/>
  <rect id="px_3_11" class="st0" x="3" y="11" width="1" height="1"/>
  <rect id="px_4_11" class="st0" x="4" y="11" width="1" height="1"/>
  <rect id="px_5_11" x="5" y="11" width="1" height="1"/>
  <rect id="px_6_11" class="st0" x="6" y="11" width="1" height="1"/>
  <rect id="px_7_11" class="st0" x="7" y="11" width="1" height="1"/>
  <rect id="px_8_11" class="st0" x="8" y="11" width="1" height="1"/>
  <rect id="px_9_11" class="st0" x="9" y="11" width="1" height="1"/>
  <rect id="px_10_11" x="10" y="11" width="1" height="1"/>
  <rect id="px_11_11" x="11" y="11" width="1" height="1"/>
  <rect id="px_12_11" x="12" y="11" width="1" height="1"/>
  <rect id="px_13_11" x="13" y="11" width="1" height="1"/>
  <rect id="px_14_11" x="14" y="11" width="1" height="1"/>
  <rect id="px_15_11" x="15" y="11" width="1" height="1"/>
  <rect id="px_16_11" x="16" y="11" width="1" height="1"/>
  <rect id="px_17_11" class="st0" x="17" y="11" width="1" height="1"/>
  <rect id="px_0_12" class="st0" y="12" width="1" height="1"/>
  <rect id="px_1_12" class="st0" x="1" y="12" width="1" height="1"/>
  <rect id="px_2_12" class="st0" x="2" y="12" width="1" height="1"/>
  <rect id="px_3_12" class="st0" x="3" y="12" width="1" height="1"/>
  <rect id="px_4_12" x="4" y="12" width="1" height="1"/>
  <rect id="px_5_12" class="st0" x="5" y="12" width="1" height="1"/>
  <rect id="px_6_12" x="6" y="12" width="1" height="1"/>
  <rect id="px_7_12" class="st0" x="7" y="12" width="1" height="1"/>
  <rect id="px_8_12" class="st0" x="8" y="12" width="1" height="1"/>
  <rect id="px_9_12" class="st0" x="9" y="12" width="1" height="1"/>
  <rect id="px_10_12" x="10" y="12" width="1" height="1"/>
  <rect id="px_11_12" class="st0" x="11" y="12" width="1" height="1"/>
  <rect id="px_12_12" class="st1" x="12" y="12" width="1" height="1"/>
  <rect id="px_13_12" class="st0" x="13" y="12" width="1" height="1"/>
  <rect id="px_14_12" class="st0" x="14" y="12" width="1" height="1"/>
  <rect id="px_15_12" class="st0" x="15" y="12" width="1" height="1"/>
  <rect id="px_16_12" x="16" y="12" width="1" height="1"/>
  <rect id="px_17_12" class="st0" x="17" y="12" width="1" height="1"/>
  <rect id="px_0_13" class="st0" y="13" width="1" height="1"/>
  <rect id="px_1_13" class="st0" x="1" y="13" width="1" height="1"/>
  <rect id="px_2_13" class="st0" x="2" y="13" width="1" height="1"/>
  <rect id="px_3_13" x="3" y="13" width="1" height="1"/>
  <rect id="px_4_13" class="st0" x="4" y="13" width="1" height="1"/>
  <rect id="px_5_13" class="st0" x="5" y="13" width="1" height="1"/>
  <rect id="px_6_13" class="st0" x="6" y="13" width="1" height="1"/>
  <rect id="px_7_13" x="7" y="13" width="1" height="1"/>
  <rect id="px_8_13" class="st0" x="8" y="13" width="1" height="1"/>
  <rect id="px_9_13" class="st0" x="9" y="13" width="1" height="1"/>
  <rect id="px_10_13" x="10" y="13" width="1" height="1"/>
  <rect id="px_11_13" class="st0" x="11" y="13" width="1" height="1"/>
  <rect id="px_12_13" class="st2" x="12" y="13" width="1" height="1"/>
  <rect id="px_13_13" class="st2" x="13" y="13" width="1" height="1"/>
  <rect id="px_14_13" class="st2" x="14" y="13" width="1" height="1"/>
  <rect id="px_15_13" class="st0" x="15" y="13" width="1" height="1"/>
  <rect id="px_16_13" x="16" y="13" width="1" height="1"/>
  <rect id="px_17_13" class="st0" x="17" y="13" width="1" height="1"/>
  <rect id="px_0_14" class="st0" y="14" width="1" height="1"/>
  <rect id="px_1_14" class="st0" x="1" y="14" width="1" height="1"/>
  <rect id="px_2_14" class="st0" x="2" y="14" width="1" height="1"/>
  <rect id="px_3_14" class="st0" x="3" y="14" width="1" height="1"/>
  <rect id="px_4_14" class="st0" x="4" y="14" width="1" height="1"/>
  <rect id="px_5_14" class="st0" x="5" y="14" width="1" height="1"/>
  <rect id="px_6_14" class="st0" x="6" y="14" width="1" height="1"/>
  <rect id="px_7_14" class="st0" x="7" y="14" width="1" height="1"/>
  <rect id="px_8_14" class="st0" x="8" y="14" width="1" height="1"/>
  <rect id="px_9_14" class="st0" x="9" y="14" width="1" height="1"/>
  <rect id="px_10_14" x="10" y="14" width="1" height="1"/>
  <rect id="px_11_14" class="st0" x="11" y="14" width="1" height="1"/>
  <rect id="px_12_14" class="st2" x="12" y="14" width="1" height="1"/>
  <rect id="px_13_14" class="st2" x="13" y="14" width="1" height="1"/>
  <rect id="px_14_14" class="st2" x="14" y="14" width="1" height="1"/>
  <rect id="px_15_14" class="st0" x="15" y="14" width="1" height="1"/>
  <rect id="px_16_14" x="16" y="14" width="1" height="1"/>
  <rect id="px_17_14" class="st0" x="17" y="14" width="1" height="1"/>
  <rect id="px_0_15" class="st0" y="15" width="1" height="1"/>
  <rect id="px_1_15" class="st0" x="1" y="15" width="1" height="1"/>
  <rect id="px_2_15" class="st0" x="2" y="15" width="1" height="1"/>
  <rect id="px_3_15" class="st0" x="3" y="15" width="1" height="1"/>
  <rect id="px_4_15" class="st0" x="4" y="15" width="1" height="1"/>
  <rect id="px_5_15" class="st0" x="5" y="15" width="1" height="1"/>
  <rect id="px_6_15" class="st0" x="6" y="15" width="1" height="1"/>
  <rect id="px_7_15" class="st0" x="7" y="15" width="1" height="1"/>
  <rect id="px_8_15" class="st0" x="8" y="15" width="1" height="1"/>
  <rect id="px_9_15" class="st0" x="9" y="15" width="1" height="1"/>
  <rect id="px_10_15" x="10" y="15" width="1" height="1"/>
  <rect id="px_11_15" class="st0" x="11" y="15" width="1" height="1"/>
  <rect id="px_12_15" class="st2" x="12" y="15" width="1" height="1"/>
  <rect id="px_13_15" class="st2" x="13" y="15" width="1" height="1"/>
  <rect id="px_14_15" class="st2" x="14" y="15" width="1" height="1"/>
  <rect id="px_15_15" class="st0" x="15" y="15" width="1" height="1"/>
  <rect id="px_16_15" x="16" y="15" width="1" height="1"/>
  <rect id="px_17_15" class="st0" x="17" y="15" width="1" height="1"/>
  <rect id="px_0_16" class="st0" y="16" width="1" height="1"/>
  <rect id="px_1_16" class="st0" x="1" y="16" width="1" height="1"/>
  <rect id="px_2_16" class="st0" x="2" y="16" width="1" height="1"/>
  <rect id="px_3_16" class="st0" x="3" y="16" width="1" height="1"/>
  <rect id="px_4_16" class="st0" x="4" y="16" width="1" height="1"/>
  <rect id="px_5_16" class="st0" x="5" y="16" width="1" height="1"/>
  <rect id="px_6_16" class="st0" x="6" y="16" width="1" height="1"/>
  <rect id="px_7_16" class="st0" x="7" y="16" width="1" height="1"/>
  <rect id="px_8_16" class="st0" x="8" y="16" width="1" height="1"/>
  <rect id="px_9_16" class="st0" x="9" y="16" width="1" height="1"/>
  <rect id="px_10_16" x="10" y="16" width="1" height="1"/>
  <rect id="px_11_16" class="st0" x="11" y="16" width="1" height="1"/>
  <rect id="px_12_16" class="st0" x="12" y="16" width="1" height="1"/>
  <rect id="px_13_16" class="st0" x="13" y="16" width="1" height="1"/>
  <rect id="px_14_16" class="st0" x="14" y="16" width="1" height="1"/>
  <rect id="px_15_16" class="st0" x="15" y="16" width="1" height="1"/>
  <rect id="px_16_16" x="16" y="16" width="1" height="1"/>
  <rect id="px_17_16" class="st0" x="17" y="16" width="1" height="1"/>
  <rect id="px_0_17" class="st0" y="17" width="1" height="1"/>
  <rect id="px_1_17" class="st0" x="1" y="17" width="1" height="1"/>
  <rect id="px_2_17" class="st0" x="2" y="17" width="1" height="1"/>
  <rect id="px_3_17" class="st0" x="3" y="17" width="1" height="1"/>
  <rect id="px_4_17" class="st0" x="4" y="17" width="1" height="1"/>
  <rect id="px_5_17" class="st0" x="5" y="17" width="1" height="1"/>
  <rect id="px_6_17" class="st0" x="6" y="17" width="1" height="1"/>
  <rect id="px_7_17" class="st0" x="7" y="17" width="1" height="1"/>
  <rect id="px_8_17" class="st0" x="8" y="17" width="1" height="1"/>
  <rect id="px_9_17" class="st0" x="9" y="17" width="1" height="1"/>
  <rect id="px_10_17" x="10" y="17" width="1" height="1"/>
  <rect id="px_11_17" x="11" y="17" width="1" height="1"/>
  <rect id="px_12_17" x="12" y="17" width="1" height="1"/>
  <rect id="px_13_17" x="13" y="17" width="1" height="1"/>
  <rect id="px_14_17" x="14" y="17" width="1" height="1"/>
  <rect id="px_15_17" x="15" y="17" width="1" height="1"/>
  <rect id="px_16_17" x="16" y="17" width="1" height="1"/>
  <rect id="px_17_17" class="st0" x="17" y="17" width="1" height="1"/>
</svg>