<?xml version="1.0" encoding="UTF-8"?>
<svg xmlns="http://www.w3.org/2000/svg" width="18" height="18" viewBox="0 0 18 18">
  <title>18x18 pixel grid template</title>
  <desc>Editable SVG template with 18 by 18 individual pixel units for manual coloring in Adobe Illustrator.</desc>
  <rect x="0" y="0" width="18" height="18" fill="#ffffff"/>
  <rect id="px_0_0" x="0" y="0" width="1" height="1" fill="#ffffff" stroke="#cfcfcf" stroke-width="0.03"/>
  <rect id="px_1_0" x="1" y="0" width="1" height="1" fill="#ffffff" stroke="#cfcfcf" stroke-width="0.03"/>
  <rect id="px_2_0" x="2" y="0" width="1" height="1" fill="#ffffff" stroke="#cfcfcf" stroke-width="0.03"/>
  <rect id="px_3_0" x="3" y="0" width="1" height="1" fill="#ffffff" stroke="#cfcfcf" stroke-width="0.03"/>
  <rect id="px_4_0" x="4" y="0" width="1" height="1" fill="#ffffff" stroke="#cfcfcf" stroke-width="0.03"/>
  <rect id="px_5_0" x="5" y="0" width="1" height="1" fill="#ffffff" stroke="#cfcfcf" stroke-width="0.03"/>
  <rect id="px_6_0" x="6" y="0" width="1" height="1" fill="#ffffff" stroke="#cfcfcf" stroke-width="0.03"/>
  <rect id="px_7_0" x="7" y="0" width="1" height="1" fill="#ffffff" stroke="#cfcfcf" stroke-width="0.03"/>
  <rect id="px_8_0" x="8" y="0" width="1" height="1" fill="#ffffff" stroke="#cfcfcf" stroke-width="0.03"/>
  <rect id="px_9_0" x="9" y="0" width="1" height="1" fill="#ffffff" stroke="#cfcfcf" stroke-width="0.03"/>
  <rect id="px_10_0" x="10" y="0" width="1" height="1" fill="#ffffff" stroke="#cfcfcf" stroke-width="0.03"/>
  <rect id="px_11_0" x="11" y="0" width="1" height="1" fill="#ffffff" stroke="#cfcfcf" stroke-width="0.03"/>
  <rect id="px_12_0" x="12" y="0" width="1" height="1" fill="#ffffff" stroke="#cfcfcf" stroke-width="0.03"/>
  <rect id="px_13_0" x="13" y="0" width="1" height="1" fill="#ffffff" stroke="#cfcfcf" stroke-width="0.03"/>
  <rect id="px_14_0" x="14" y="0" width="1" height="1" fill="#ffffff" stroke="#cfcfcf" stroke-width="0.03"/>
  <rect id="px_15_0" x="15" y="0" width="1" height="1" fill="#ffffff" stroke="#cfcfcf" stroke-width="0.03"/>
  <rect id="px_16_0" x="16" y="0" width="1" height="1" fill="#ffffff" stroke="#cfcfcf" stroke-width="0.03"/>
  <rect id="px_17_0" x="17" y="0" width="1" height="1" fill="#ffffff" stroke="#cfcfcf" stroke-width="0.03"/>
  <rect id="px_0_1" x="0" y="1" width="1" height="1" fill="#ffffff" stroke="#cfcfcf" stroke-width="0.03"/>
  <rect id="px_1_1" x="1" y="1" width="1" height="1" fill="#ffffff" stroke="#cfcfcf" stroke-width="0.03"/>
  <rect id="px_2_1" x="2" y="1" width="1" height="1" fill="#ffffff" stroke="#cfcfcf" stroke-width="0.03"/>
  <rect id="px_3_1" x="3" y="1" width="1" height="1" fill="#ffffff" stroke="#cfcfcf" stroke-width="0.03"/>
  <rect id="px_4_1" x="4" y="1" width="1" height="1" fill="#ffffff" stroke="#cfcfcf" stroke-width="0.03"/>
  <rect id="px_5_1" x="5" y="1" width="1" height="1" fill="#ffffff" stroke="#cfcfcf" stroke-width="0.03"/>
  <rect id="px_6_1" x="6" y="1" width="1" height="1" fill="#ffffff" stroke="#cfcfcf" stroke-width="0.03"/>
  <rect id="px_7_1" x="7" y="1" width="1" height="1" fill="#ffffff" stroke="#cfcfcf" stroke-width="0.03"/>
  <rect id="px_8_1" x="8" y="1" width="1" height="1" fill="#ffffff" stroke="#cfcfcf" stroke-width="0.03"/>
  <rect id="px_9_1" x="9" y="1" width="1" height="1" fill="#ffffff" stroke="#cfcfcf" stroke-width="0.03"/>
  <rect id="px_10_1" x="10" y="1" width="1" height="1" fill="#ffffff" stroke="#cfcfcf" stroke-width="0.03"/>
  <rect id="px_11_1" x="11" y="1" width="1" height="1" fill="#ffffff" stroke="#cfcfcf" stroke-width="0.03"/>
  <rect id="px_12_1" x="12" y="1" width="1" height="1" fill="#ffffff" stroke="#cfcfcf" stroke-width="0.03"/>
  <rect id="px_13_1" x="13" y="1" width="1" height="1" fill="#ffffff" stroke="#cfcfcf" stroke-width="0.03"/>
  <rect id="px_14_1" x="14" y="1" width="1" height="1" fill="#ffffff" stroke="#cfcfcf" stroke-width="0.03"/>
  <rect id="px_15_1" x="15" y="1" width="1" height="1" fill="#ffffff" stroke="#cfcfcf" stroke-width="0.03"/>
  <rect id="px_16_1" x="16" y="1" width="1" height="1" fill="#ffffff" stroke="#cfcfcf" stroke-width="0.03"/>
  <rect id="px_17_1" x="17" y="1" width="1" height="1" fill="#ffffff" stroke="#cfcfcf" stroke-width="0.03"/>
  <rect id="px_0_2" x="0" y="2" width="1" height="1" fill="#ffffff" stroke="#cfcfcf" stroke-width="0.03"/>
  <rect id="px_1_2" x="1" y="2" width="1" height="1" fill="#ffffff" stroke="#cfcfcf" stroke-width="0.03"/>
  <rect id="px_2_2" x="2" y="2" width="1" height="1" fill="#ffffff" stroke="#cfcfcf" stroke-width="0.03"/>
  <rect id="px_3_2" x="3" y="2" width="1" height="1" fill="#ffffff" stroke="#cfcfcf" stroke-width="0.03"/>
  <rect id="px_4_2" x="4" y="2" width="1" height="1" fill="#ffffff" stroke="#cfcfcf" stroke-width="0.03"/>
  <rect id="px_5_2" x="5" y="2" width="1" height="1" fill="#ffffff" stroke="#cfcfcf" stroke-width="0.03"/>
  <rect id="px_6_2" x="6" y="2" width="1" height="1" fill="#ffffff" stroke="#cfcfcf" stroke-width="0.03"/>
  <rect id="px_7_2" x="7" y="2" width="1" height="1" fill="#ffffff" stroke="#cfcfcf" stroke-width="0.03"/>
  <rect id="px_8_2" x="8" y="2" width="1" height="1" fill="#ffffff" stroke="#cfcfcf" stroke-width="0.03"/>
  <rect id="px_9_2" x="9" y="2" width="1" height="1" fill="#ffffff" stroke="#cfcfcf" stroke-width="0.03"/>
  <rect id="px_10_2" x="10" y="2" width="1" height="1" fill="#ffffff" stroke="#cfcfcf" stroke-width="0.03"/>
  <rect id="px_11_2" x="11" y="2" width="1" height="1" fill="#ffffff" stroke="#cfcfcf" stroke-width="0.03"/>
  <rect id="px_12_2" x="12" y="2" width="1" height="1" fill="#ffffff" stroke="#cfcfcf" stroke-width="0.03"/>
  <rect id="px_13_2" x="13" y="2" width="1" height="1" fill="#ffffff" stroke="#cfcfcf" stroke-width="0.03"/>
  <rect id="px_14_2" x="14" y="2" width="1" height="1" fill="#ffffff" stroke="#cfcfcf" stroke-width="0.03"/>
  <rect id="px_15_2" x="15" y="2" width="1" height="1" fill="#ffffff" stroke="#cfcfcf" stroke-width="0.03"/>
  <rect id="px_16_2" x="16" y="2" width="1" height="1" fill="#ffffff" stroke="#cfcfcf" stroke-width="0.03"/>
  <rect id="px_17_2" x="17" y="2" width="1" height="1" fill="#ffffff" stroke="#cfcfcf" stroke-width="0.03"/>
  <rect id="px_0_3" x="0" y="3" width="1" height="1" fill="#ffffff" stroke="#cfcfcf" stroke-width="0.03"/>
  <rect id="px_1_3" x="1" y="3" width="1" height="1" fill="#ffffff" stroke="#cfcfcf" stroke-width="0.03"/>
  <rect id="px_2_3" x="2" y="3" width="1" height="1" fill="#ffffff" stroke="#cfcfcf" stroke-width="0.03"/>
  <rect id="px_3_3" x="3" y="3" width="1" height="1" fill="#ffffff" stroke="#cfcfcf" stroke-width="0.03"/>
  <rect id="px_4_3" x="4" y="3" width="1" height="1" fill="#ffffff" stroke="#cfcfcf" stroke-width="0.03"/>
  <rect id="px_5_3" x="5" y="3" width="1" height="1" fill="#ffffff" stroke="#cfcfcf" stroke-width="0.03"/>
  <rect id="px_6_3" x="6" y="3" width="1" height="1" fill="#ffffff" stroke="#cfcfcf" stroke-width="0.03"/>
  <rect id="px_7_3" x="7" y="3" width="1" height="1" fill="#ffffff" stroke="#cfcfcf" stroke-width="0.03"/>
  <rect id="px_8_3" x="8" y="3" width="1" height="1" fill="#ffffff" stroke="#cfcfcf" stroke-width="0.03"/>
  <rect id="px_9_3" x="9" y="3" width="1" height="1" fill="#ffffff" stroke="#cfcfcf" stroke-width="0.03"/>
  <rect id="px_10_3" x="10" y="3" width="1" height="1" fill="#ffffff" stroke="#cfcfcf" stroke-width="0.03"/>
  <rect id="px_11_3" x="11" y="3" width="1" height="1" fill="#ffffff" stroke="#cfcfcf" stroke-width="0.03"/>
  <rect id="px_12_3" x="12" y="3" width="1" height="1" fill="#ffffff" stroke="#cfcfcf" stroke-width="0.03"/>
  <rect id="px_13_3" x="13" y="3" width="1" height="1" fill="#ffffff" stroke="#cfcfcf" stroke-width="0.03"/>
  <rect id="px_14_3" x="14" y="3" width="1" height="1" fill="#ffffff" stroke="#cfcfcf" stroke-width="0.03"/>
  <rect id="px_15_3" x="15" y="3" width="1" height="1" fill="#ffffff" stroke="#cfcfcf" stroke-width="0.03"/>
  <rect id="px_16_3" x="16" y="3" width="1" height="1" fill="#ffffff" stroke="#cfcfcf" stroke-width="0.03"/>
  <rect id="px_17_3" x="17" y="3" width="1" height="1" fill="#ffffff" stroke="#cfcfcf" stroke-width="0.03"/>
  <rect id="px_0_4" x="0" y="4" width="1" height="1" fill="#ffffff" stroke="#cfcfcf" stroke-width="0.03"/>
  <rect id="px_1_4" x="1" y="4" width="1" height="1" fill="#ffffff" stroke="#cfcfcf" stroke-width="0.03"/>
  <rect id="px_2_4" x="2" y="4" width="1" height="1" fill="#ffffff" stroke="#cfcfcf" stroke-width="0.03"/>
  <rect id="px_3_4" x="3" y="4" width="1" height="1" fill="#ffffff" stroke="#cfcfcf" stroke-width="0.03"/>
  <rect id="px_4_4" x="4" y="4" width="1" height="1" fill="#ffffff" stroke="#cfcfcf" stroke-width="0.03"/>
  <rect id="px_5_4" x="5" y="4" width="1" height="1" fill="#ffffff" stroke="#cfcfcf" stroke-width="0.03"/>
  <rect id="px_6_4" x="6" y="4" width="1" height="1" fill="#ffffff" stroke="#cfcfcf" stroke-width="0.03"/>
  <rect id="px_7_4" x="7" y="4" width="1" height="1" fill="#ffffff" stroke="#cfcfcf" stroke-width="0.03"/>
  <rect id="px_8_4" x="8" y="4" width="1" height="1" fill="#ffffff" stroke="#cfcfcf" stroke-width="0.03"/>
  <rect id="px_9_4" x="9" y="4" width="1" height="1" fill="#ffffff" stroke="#cfcfcf" stroke-width="0.03"/>
  <rect id="px_10_4" x="10" y="4" width="1" height="1" fill="#ffffff" stroke="#cfcfcf" stroke-width="0.03"/>
  <rect id="px_11_4" x="11" y="4" width="1" height="1" fill="#ffffff" stroke="#cfcfcf" stroke-width="0.03"/>
  <rect id="px_12_4" x="12" y="4" width="1" height="1" fill="#ffffff" stroke="#cfcfcf" stroke-width="0.03"/>
  <rect id="px_13_4" x="13" y="4" width="1" height="1" fill="#ffffff" stroke="#cfcfcf" stroke-width="0.03"/>
  <rect id="px_14_4" x="14" y="4" width="1" height="1" fill="#ffffff" stroke="#cfcfcf" stroke-width="0.03"/>
  <rect id="px_15_4" x="15" y="4" width="1" height="1" fill="#ffffff" stroke="#cfcfcf" stroke-width="0.03"/>
  <rect id="px_16_4" x="16" y="4" width="1" height="1" fill="#ffffff" stroke="#cfcfcf" stroke-width="0.03"/>
  <rect id="px_17_4" x="17" y="4" width="1" height="1" fill="#ffffff" stroke="#cfcfcf" stroke-width="0.03"/>
  <rect id="px_0_5" x="0" y="5" width="1" height="1" fill="#ffffff" stroke="#cfcfcf" stroke-width="0.03"/>
  <rect id="px_1_5" x="1" y="5" width="1" height="1" fill="#ffffff" stroke="#cfcfcf" stroke-width="0.03"/>
  <rect id="px_2_5" x="2" y="5" width="1" height="1" fill="#ffffff" stroke="#cfcfcf" stroke-width="0.03"/>
  <rect id="px_3_5" x="3" y="5" width="1" height="1" fill="#ffffff" stroke="#cfcfcf" stroke-width="0.03"/>
  <rect id="px_4_5" x="4" y="5" width="1" height="1" fill="#ffffff" stroke="#cfcfcf" stroke-width="0.03"/>
  <rect id="px_5_5" x="5" y="5" width="1" height="1" fill="#ffffff" stroke="#cfcfcf" stroke-width="0.03"/>
  <rect id="px_6_5" x="6" y="5" width="1" height="1" fill="#ffffff" stroke="#cfcfcf" stroke-width="0.03"/>
  <rect id="px_7_5" x="7" y="5" width="1" height="1" fill="#ffffff" stroke="#cfcfcf" stroke-width="0.03"/>
  <rect id="px_8_5" x="8" y="5" width="1" height="1" fill="#ffffff" stroke="#cfcfcf" stroke-width="0.03"/>
  <rect id="px_9_5" x="9" y="5" width="1" height="1" fill="#ffffff" stroke="#cfcfcf" stroke-width="0.03"/>
  <rect id="px_10_5" x="10" y="5" width="1" height="1" fill="#ffffff" stroke="#cfcfcf" stroke-width="0.03"/>
  <rect id="px_11_5" x="11" y="5" width="1" height="1" fill="#ffffff" stroke="#cfcfcf" stroke-width="0.03"/>
  <rect id="px_12_5" x="12" y="5" width="1" height="1" fill="#ffffff" stroke="#cfcfcf" stroke-width="0.03"/>
  <rect id="px_13_5" x="13" y="5" width="1" height="1" fill="#ffffff" stroke="#cfcfcf" stroke-width="0.03"/>
  <rect id="px_14_5" x="14" y="5" width="1" height="1" fill="#ffffff" stroke="#cfcfcf" stroke-width="0.03"/>
  <rect id="px_15_5" x="15" y="5" width="1" height="1" fill="#ffffff" stroke="#cfcfcf" stroke-width="0.03"/>
  <rect id="px_16_5" x="16" y="5" width="1" height="1" fill="#ffffff" stroke="#cfcfcf" stroke-width="0.03"/>
  <rect id="px_17_5" x="17" y="5" width="1" height="1" fill="#ffffff" stroke="#cfcfcf" stroke-width="0.03"/>
  <rect id="px_0_6" x="0" y="6" width="1" height="1" fill="#ffffff" stroke="#cfcfcf" stroke-width="0.03"/>
  <rect id="px_1_6" x="1" y="6" width="1" height="1" fill="#ffffff" stroke="#cfcfcf" stroke-width="0.03"/>
  <rect id="px_2_6" x="2" y="6" width="1" height="1" fill="#ffffff" stroke="#cfcfcf" stroke-width="0.03"/>
  <rect id="px_3_6" x="3" y="6" width="1" height="1" fill="#ffffff" stroke="#cfcfcf" stroke-width="0.03"/>
  <rect id="px_4_6" x="4" y="6" width="1" height="1" fill="#ffffff" stroke="#cfcfcf" stroke-width="0.03"/>
  <rect id="px_5_6" x="5" y="6" width="1" height="1" fill="#ffffff" stroke="#cfcfcf" stroke-width="0.03"/>
  <rect id="px_6_6" x="6" y="6" width="1" height="1" fill="#ffffff" stroke="#cfcfcf" stroke-width="0.03"/>
  <rect id="px_7_6" x="7" y="6" width="1" height="1" fill="#ffffff" stroke="#cfcfcf" stroke-width="0.03"/>
  <rect id="px_8_6" x="8" y="6" width="1" height="1" fill="#ffffff" stroke="#cfcfcf" stroke-width="0.03"/>
  <rect id="px_9_6" x="9" y="6" width="1" height="1" fill="#ffffff" stroke="#cfcfcf" stroke-width="0.03"/>
  <rect id="px_10_6" x="10" y="6" width="1" height="1" fill="#ffffff" stroke="#cfcfcf" stroke-width="0.03"/>
  <rect id="px_11_6" x="11" y="6" width="1" height="1" fill="#ffffff" stroke="#cfcfcf" stroke-width="0.03"/>
  <rect id="px_12_6" x="12" y="6" width="1" height="1" fill="#ffffff" stroke="#cfcfcf" stroke-width="0.03"/>
  <rect id="px_13_6" x="13" y="6" width="1" height="1" fill="#ffffff" stroke="#cfcfcf" stroke-width="0.03"/>
  <rect id="px_14_6" x="14" y="6" width="1" height="1" fill="#ffffff" stroke="#cfcfcf" stroke-width="0.03"/>
  <rect id="px_15_6" x="15" y="6" width="1" height="1" fill="#ffffff" stroke="#cfcfcf" stroke-width="0.03"/>
  <rect id="px_16_6" x="16" y="6" width="1" height="1" fill="#ffffff" stroke="#cfcfcf" stroke-width="0.03"/>
  <rect id="px_17_6" x="17" y="6" width="1" height="1" fill="#ffffff" stroke="#cfcfcf" stroke-width="0.03"/>
  <rect id="px_0_7" x="0" y="7" width="1" height="1" fill="#ffffff" stroke="#cfcfcf" stroke-width="0.03"/>
  <rect id="px_1_7" x="1" y="7" width="1" height="1" fill="#ffffff" stroke="#cfcfcf" stroke-width="0.03"/>
  <rect id="px_2_7" x="2" y="7" width="1" height="1" fill="#ffffff" stroke="#cfcfcf" stroke-width="0.03"/>
  <rect id="px_3_7" x="3" y="7" width="1" height="1" fill="#ffffff" stroke="#cfcfcf" stroke-width="0.03"/>
  <rect id="px_4_7" x="4" y="7" width="1" height="1" fill="#ffffff" stroke="#cfcfcf" stroke-width="0.03"/>
  <rect id="px_5_7" x="5" y="7" width="1" height="1" fill="#ffffff" stroke="#cfcfcf" stroke-width="0.03"/>
  <rect id="px_6_7" x="6" y="7" width="1" height="1" fill="#ffffff" stroke="#cfcfcf" stroke-width="0.03"/>
  <rect id="px_7_7" x="7" y="7" width="1" height="1" fill="#ffffff" stroke="#cfcfcf" stroke-width="0.03"/>
  <rect id="px_8_7" x="8" y="7" width="1" height="1" fill="#ffffff" stroke="#cfcfcf" stroke-width="0.03"/>
  <rect id="px_9_7" x="9" y="7" width="1" height="1" fill="#ffffff" stroke="#cfcfcf" stroke-width="0.03"/>
  <rect id="px_10_7" x="10" y="7" width="1" height="1" fill="#ffffff" stroke="#cfcfcf" stroke-width="0.03"/>
  <rect id="px_11_7" x="11" y="7" width="1" height="1" fill="#ffffff" stroke="#cfcfcf" stroke-width="0.03"/>
  <rect id="px_12_7" x="12" y="7" width="1" height="1" fill="#ffffff" stroke="#cfcfcf" stroke-width="0.03"/>
  <rect id="px_13_7" x="13" y="7" width="1" height="1" fill="#ffffff" stroke="#cfcfcf" stroke-width="0.03"/>
  <rect id="px_14_7" x="14" y="7" width="1" height="1" fill="#ffffff" stroke="#cfcfcf" stroke-width="0.03"/>
  <rect id="px_15_7" x="15" y="7" width="1" height="1" fill="#ffffff" stroke="#cfcfcf" stroke-width="0.03"/>
  <rect id="px_16_7" x="16" y="7" width="1" height="1" fill="#ffffff" stroke="#cfcfcf" stroke-width="0.03"/>
  <rect id="px_17_7" x="17" y="7" width="1" height="1" fill="#ffffff" stroke="#cfcfcf" stroke-width="0.03"/>
  <rect id="px_0_8" x="0" y="8" width="1" height="1" fill="#ffffff" stroke="#cfcfcf" stroke-width="0.03"/>
  <rect id="px_1_8" x="1" y="8" width="1" height="1" fill="#ffffff" stroke="#cfcfcf" stroke-width="0.03"/>
  <rect id="px_2_8" x="2" y="8" width="1" height="1" fill="#ffffff" stroke="#cfcfcf" stroke-width="0.03"/>
  <rect id="px_3_8" x="3" y="8" width="1" height="1" fill="#ffffff" stroke="#cfcfcf" stroke-width="0.03"/>
  <rect id="px_4_8" x="4" y="8" width="1" height="1" fill="#ffffff" stroke="#cfcfcf" stroke-width="0.03"/>
  <rect id="px_5_8" x="5" y="8" width="1" height="1" fill="#ffffff" stroke="#cfcfcf" stroke-width="0.03"/>
  <rect id="px_6_8" x="6" y="8" width="1" height="1" fill="#ffffff" stroke="#cfcfcf" stroke-width="0.03"/>
  <rect id="px_7_8" x="7" y="8" width="1" height="1" fill="#ffffff" stroke="#cfcfcf" stroke-width="0.03"/>
  <rect id="px_8_8" x="8" y="8" width="1" height="1" fill="#ffffff" stroke="#cfcfcf" stroke-width="0.03"/>
  <rect id="px_9_8" x="9" y="8" width="1" height="1" fill="#ffffff" stroke="#cfcfcf" stroke-width="0.03"/>
  <rect id="px_10_8" x="10" y="8" width="1" height="1" fill="#ffffff" stroke="#cfcfcf" stroke-width="0.03"/>
  <rect id="px_11_8" x="11" y="8" width="1" height="1" fill="#ffffff" stroke="#cfcfcf" stroke-width="0.03"/>
  <rect id="px_12_8" x="12" y="8" width="1" height="1" fill="#ffffff" stroke="#cfcfcf" stroke-width="0.03"/>
  <rect id="px_13_8" x="13" y="8" width="1" height="1" fill="#ffffff" stroke="#cfcfcf" stroke-width="0.03"/>
  <rect id="px_14_8" x="14" y="8" width="1" height="1" fill="#ffffff" stroke="#cfcfcf" stroke-width="0.03"/>
  <rect id="px_15_8" x="15" y="8" width="1" height="1" fill="#ffffff" stroke="#cfcfcf" stroke-width="0.03"/>
  <rect id="px_16_8" x="16" y="8" width="1" height="1" fill="#ffffff" stroke="#cfcfcf" stroke-width="0.03"/>
  <rect id="px_17_8" x="17" y="8" width="1" height="1" fill="#ffffff" stroke="#cfcfcf" stroke-width="0.03"/>
  <rect id="px_0_9" x="0" y="9" width="1" height="1" fill="#ffffff" stroke="#cfcfcf" stroke-width="0.03"/>
  <rect id="px_1_9" x="1" y="9" width="1" height="1" fill="#ffffff" stroke="#cfcfcf" stroke-width="0.03"/>
  <rect id="px_2_9" x="2" y="9" width="1" height="1" fill="#ffffff" stroke="#cfcfcf" stroke-width="0.03"/>
  <rect id="px_3_9" x="3" y="9" width="1" height="1" fill="#ffffff" stroke="#cfcfcf" stroke-width="0.03"/>
  <rect id="px_4_9" x="4" y="9" width="1" height="1" fill="#ffffff" stroke="#cfcfcf" stroke-width="0.03"/>
  <rect id="px_5_9" x="5" y="9" width="1" height="1" fill="#ffffff" stroke="#cfcfcf" stroke-width="0.03"/>
  <rect id="px_6_9" x="6" y="9" width="1" height="1" fill="#ffffff" stroke="#cfcfcf" stroke-width="0.03"/>
  <rect id="px_7_9" x="7" y="9" width="1" height="1" fill="#ffffff" stroke="#cfcfcf" stroke-width="0.03"/>
  <rect id="px_8_9" x="8" y="9" width="1" height="1" fill="#ffffff" stroke="#cfcfcf" stroke-width="0.03"/>
  <rect id="px_9_9" x="9" y="9" width="1" height="1" fill="#ffffff" stroke="#cfcfcf" stroke-width="0.03"/>
  <rect id="px_10_9" x="10" y="9" width="1" height="1" fill="#ffffff" stroke="#cfcfcf" stroke-width="0.03"/>
  <rect id="px_11_9" x="11" y="9" width="1" height="1" fill="#ffffff" stroke="#cfcfcf" stroke-width="0.03"/>
  <rect id="px_12_9" x="12" y="9" width="1" height="1" fill="#ffffff" stroke="#cfcfcf" stroke-width="0.03"/>
  <rect id="px_13_9" x="13" y="9" width="1" height="1" fill="#ffffff" stroke="#cfcfcf" stroke-width="0.03"/>
  <rect id="px_14_9" x="14" y="9" width="1" height="1" fill="#ffffff" stroke="#cfcfcf" stroke-width="0.03"/>
  <rect id="px_15_9" x="15" y="9" width="1" height="1" fill="#ffffff" stroke="#cfcfcf" stroke-width="0.03"/>
  <rect id="px_16_9" x="16" y="9" width="1" height="1" fill="#ffffff" stroke="#cfcfcf" stroke-width="0.03"/>
  <rect id="px_17_9" x="17" y="9" width="1" height="1" fill="#ffffff" stroke="#cfcfcf" stroke-width="0.03"/>
  <rect id="px_0_10" x="0" y="10" width="1" height="1" fill="#ffffff" stroke="#cfcfcf" stroke-width="0.03"/>
  <rect id="px_1_10" x="1" y="10" width="1" height="1" fill="#ffffff" stroke="#cfcfcf" stroke-width="0.03"/>
  <rect id="px_2_10" x="2" y="10" width="1" height="1" fill="#ffffff" stroke="#cfcfcf" stroke-width="0.03"/>
  <rect id="px_3_10" x="3" y="10" width="1" height="1" fill="#ffffff" stroke="#cfcfcf" stroke-width="0.03"/>
  <rect id="px_4_10" x="4" y="10" width="1" height="1" fill="#ffffff" stroke="#cfcfcf" stroke-width="0.03"/>
  <rect id="px_5_10" x="5" y="10" width="1" height="1" fill="#ffffff" stroke="#cfcfcf" stroke-width="0.03"/>
  <rect id="px_6_10" x="6" y="10" width="1" height="1" fill="#ffffff" stroke="#cfcfcf" stroke-width="0.03"/>
  <rect id="px_7_10" x="7" y="10" width="1" height="1" fill="#ffffff" stroke="#cfcfcf" stroke-width="0.03"/>
  <rect id="px_8_10" x="8" y="10" width="1" height="1" fill="#ffffff" stroke="#cfcfcf" stroke-width="0.03"/>
  <rect id="px_9_10" x="9" y="10" width="1" height="1" fill="#ffffff" stroke="#cfcfcf" stroke-width="0.03"/>
  <rect id="px_10_10" x="10" y="10" width="1" height="1" fill="#ffffff" stroke="#cfcfcf" stroke-width="0.03"/>
  <rect id="px_11_10" x="11" y="10" width="1" height="1" fill="#ffffff" stroke="#cfcfcf" stroke-width="0.03"/>
  <rect id="px_12_10" x="12" y="10" width="1" height="1" fill="#ffffff" stroke="#cfcfcf" stroke-width="0.03"/>
  <rect id="px_13_10" x="13" y="10" width="1" height="1" fill="#ffffff" stroke="#cfcfcf" stroke-width="0.03"/>
  <rect id="px_14_10" x="14" y="10" width="1" height="1" fill="#ffffff" stroke="#cfcfcf" stroke-width="0.03"/>
  <rect id="px_15_10" x="15" y="10" width="1" height="1" fill="#ffffff" stroke="#cfcfcf" stroke-width="0.03"/>
  <rect id="px_16_10" x="16" y="10" width="1" height="1" fill="#ffffff" stroke="#cfcfcf" stroke-width="0.03"/>
  <rect id="px_17_10" x="17" y="10" width="1" height="1" fill="#ffffff" stroke="#cfcfcf" stroke-width="0.03"/>
  <rect id="px_0_11" x="0" y="11" width="1" height="1" fill="#ffffff" stroke="#cfcfcf" stroke-width="0.03"/>
  <rect id="px_1_11" x="1" y="11" width="1" height="1" fill="#ffffff" stroke="#cfcfcf" stroke-width="0.03"/>
  <rect id="px_2_11" x="2" y="11" width="1" height="1" fill="#ffffff" stroke="#cfcfcf" stroke-width="0.03"/>
  <rect id="px_3_11" x="3" y="11" width="1" height="1" fill="#ffffff" stroke="#cfcfcf" stroke-width="0.03"/>
  <rect id="px_4_11" x="4" y="11" width="1" height="1" fill="#ffffff" stroke="#cfcfcf" stroke-width="0.03"/>
  <rect id="px_5_11" x="5" y="11" width="1" height="1" fill="#ffffff" stroke="#cfcfcf" stroke-width="0.03"/>
  <rect id="px_6_11" x="6" y="11" width="1" height="1" fill="#ffffff" stroke="#cfcfcf" stroke-width="0.03"/>
  <rect id="px_7_11" x="7" y="11" width="1" height="1" fill="#ffffff" stroke="#cfcfcf" stroke-width="0.03"/>
  <rect id="px_8_11" x="8" y="11" width="1" height="1" fill="#ffffff" stroke="#cfcfcf" stroke-width="0.03"/>
  <rect id="px_9_11" x="9" y="11" width="1" height="1" fill="#ffffff" stroke="#cfcfcf" stroke-width="0.03"/>
  <rect id="px_10_11" x="10" y="11" width="1" height="1" fill="#ffffff" stroke="#cfcfcf" stroke-width="0.03"/>
  <rect id="px_11_11" x="11" y="11" width="1" height="1" fill="#ffffff" stroke="#cfcfcf" stroke-width="0.03"/>
  <rect id="px_12_11" x="12" y="11" width="1" height="1" fill="#ffffff" stroke="#cfcfcf" stroke-width="0.03"/>
  <rect id="px_13_11" x="13" y="11" width="1" height="1" fill="#ffffff" stroke="#cfcfcf" stroke-width="0.03"/>
  <rect id="px_14_11" x="14" y="11" width="1" height="1" fill="#ffffff" stroke="#cfcfcf" stroke-width="0.03"/>
  <rect id="px_15_11" x="15" y="11" width="1" height="1" fill="#ffffff" stroke="#cfcfcf" stroke-width="0.03"/>
  <rect id="px_16_11" x="16" y="11" width="1" height="1" fill="#ffffff" stroke="#cfcfcf" stroke-width="0.03"/>
  <rect id="px_17_11" x="17" y="11" width="1" height="1" fill="#ffffff" stroke="#cfcfcf" stroke-width="0.03"/>
  <rect id="px_0_12" x="0" y="12" width="1" height="1" fill="#ffffff" stroke="#cfcfcf" stroke-width="0.03"/>
  <rect id="px_1_12" x="1" y="12" width="1" height="1" fill="#ffffff" stroke="#cfcfcf" stroke-width="0.03"/>
  <rect id="px_2_12" x="2" y="12" width="1" height="1" fill="#ffffff" stroke="#cfcfcf" stroke-width="0.03"/>
  <rect id="px_3_12" x="3" y="12" width="1" height="1" fill="#ffffff" stroke="#cfcfcf" stroke-width="0.03"/>
  <rect id="px_4_12" x="4" y="12" width="1" height="1" fill="#ffffff" stroke="#cfcfcf" stroke-width="0.03"/>
  <rect id="px_5_12" x="5" y="12" width="1" height="1" fill="#ffffff" stroke="#cfcfcf" stroke-width="0.03"/>
  <rect id="px_6_12" x="6" y="12" width="1" height="1" fill="#ffffff" stroke="#cfcfcf" stroke-width="0.03"/>
  <rect id="px_7_12" x="7" y="12" width="1" height="1" fill="#ffffff" stroke="#cfcfcf" stroke-width="0.03"/>
  <rect id="px_8_12" x="8" y="12" width="1" height="1" fill="#ffffff" stroke="#cfcfcf" stroke-width="0.03"/>
  <rect id="px_9_12" x="9" y="12" width="1" height="1" fill="#ffffff" stroke="#cfcfcf" stroke-width="0.03"/>
  <rect id="px_10_12" x="10" y="12" width="1" height="1" fill="#ffffff" stroke="#cfcfcf" stroke-width="0.03"/>
  <rect id="px_11_12" x="11" y="12" width="1" height="1" fill="#ffffff" stroke="#cfcfcf" stroke-width="0.03"/>
  <rect id="px_12_12" x="12" y="12" width="1" height="1" fill="#ffffff" stroke="#cfcfcf" stroke-width="0.03"/>
  <rect id="px_13_12" x="13" y="12" width="1" height="1" fill="#ffffff" stroke="#cfcfcf" stroke-width="0.03"/>
  <rect id="px_14_12" x="14" y="12" width="1" height="1" fill="#ffffff" stroke="#cfcfcf" stroke-width="0.03"/>
  <rect id="px_15_12" x="15" y="12" width="1" height="1" fill="#ffffff" stroke="#cfcfcf" stroke-width="0.03"/>
  <rect id="px_16_12" x="16" y="12" width="1" height="1" fill="#ffffff" stroke="#cfcfcf" stroke-width="0.03"/>
  <rect id="px_17_12" x="17" y="12" width="1" height="1" fill="#ffffff" stroke="#cfcfcf" stroke-width="0.03"/>
  <rect id="px_0_13" x="0" y="13" width="1" height="1" fill="#ffffff" stroke="#cfcfcf" stroke-width="0.03"/>
  <rect id="px_1_13" x="1" y="13" width="1" height="1" fill="#ffffff" stroke="#cfcfcf" stroke-width="0.03"/>
  <rect id="px_2_13" x="2" y="13" width="1" height="1" fill="#ffffff" stroke="#cfcfcf" stroke-width="0.03"/>
  <rect id="px_3_13" x="3" y="13" width="1" height="1" fill="#ffffff" stroke="#cfcfcf" stroke-width="0.03"/>
  <rect id="px_4_13" x="4" y="13" width="1" height="1" fill="#ffffff" stroke="#cfcfcf" stroke-width="0.03"/>
  <rect id="px_5_13" x="5" y="13" width="1" height="1" fill="#ffffff" stroke="#cfcfcf" stroke-width="0.03"/>
  <rect id="px_6_13" x="6" y="13" width="1" height="1" fill="#ffffff" stroke="#cfcfcf" stroke-width="0.03"/>
  <rect id="px_7_13" x="7" y="13" width="1" height="1" fill="#ffffff" stroke="#cfcfcf" stroke-width="0.03"/>
  <rect id="px_8_13" x="8" y="13" width="1" height="1" fill="#ffffff" stroke="#cfcfcf" stroke-width="0.03"/>
  <rect id="px_9_13" x="9" y="13" width="1" height="1" fill="#ffffff" stroke="#cfcfcf" stroke-width="0.03"/>
  <rect id="px_10_13" x="10" y="13" width="1" height="1" fill="#ffffff" stroke="#cfcfcf" stroke-width="0.03"/>
  <rect id="px_11_13" x="11" y="13" width="1" height="1" fill="#ffffff" stroke="#cfcfcf" stroke-width="0.03"/>
  <rect id="px_12_13" x="12" y="13" width="1" height="1" fill="#ffffff" stroke="#cfcfcf" stroke-width="0.03"/>
  <rect id="px_13_13" x="13" y="13" width="1" height="1" fill="#ffffff" stroke="#cfcfcf" stroke-width="0.03"/>
  <rect id="px_14_13" x="14" y="13" width="1" height="1" fill="#ffffff" stroke="#cfcfcf" stroke-width="0.03"/>
  <rect id="px_15_13" x="15" y="13" width="1" height="1" fill="#ffffff" stroke="#cfcfcf" stroke-width="0.03"/>
  <rect id="px_16_13" x="16" y="13" width="1" height="1" fill="#ffffff" stroke="#cfcfcf" stroke-width="0.03"/>
  <rect id="px_17_13" x="17" y="13" width="1" height="1" fill="#ffffff" stroke="#cfcfcf" stroke-width="0.03"/>
  <rect id="px_0_14" x="0" y="14" width="1" height="1" fill="#ffffff" stroke="#cfcfcf" stroke-width="0.03"/>
  <rect id="px_1_14" x="1" y="14" width="1" height="1" fill="#ffffff" stroke="#cfcfcf" stroke-width="0.03"/>
  <rect id="px_2_14" x="2" y="14" width="1" height="1" fill="#ffffff" stroke="#cfcfcf" stroke-width="0.03"/>
  <rect id="px_3_14" x="3" y="14" width="1" height="1" fill="#ffffff" stroke="#cfcfcf" stroke-width="0.03"/>
  <rect id="px_4_14" x="4" y="14" width="1" height="1" fill="#ffffff" stroke="#cfcfcf" stroke-width="0.03"/>
  <rect id="px_5_14" x="5" y="14" width="1" height="1" fill="#ffffff" stroke="#cfcfcf" stroke-width="0.03"/>
  <rect id="px_6_14" x="6" y="14" width="1" height="1" fill="#ffffff" stroke="#cfcfcf" stroke-width="0.03"/>
  <rect id="px_7_14" x="7" y="14" width="1" height="1" fill="#ffffff" stroke="#cfcfcf" stroke-width="0.03"/>
  <rect id="px_8_14" x="8" y="14" width="1" height="1" fill="#ffffff" stroke="#cfcfcf" stroke-width="0.03"/>
  <rect id="px_9_14" x="9" y="14" width="1" height="1" fill="#ffffff" stroke="#cfcfcf" stroke-width="0.03"/>
  <rect id="px_10_14" x="10" y="14" width="1" height="1" fill="#ffffff" stroke="#cfcfcf" stroke-width="0.03"/>
  <rect id="px_11_14" x="11" y="14" width="1" height="1" fill="#ffffff" stroke="#cfcfcf" stroke-width="0.03"/>
  <rect id="px_12_14" x="12" y="14" width="1" height="1" fill="#ffffff" stroke="#cfcfcf" stroke-width="0.03"/>
  <rect id="px_13_14" x="13" y="14" width="1" height="1" fill="#ffffff" stroke="#cfcfcf" stroke-width="0.03"/>
  <rect id="px_14_14" x="14" y="14" width="1" height="1" fill="#ffffff" stroke="#cfcfcf" stroke-width="0.03"/>
  <rect id="px_15_14" x="15" y="14" width="1" height="1" fill="#ffffff" stroke="#cfcfcf" stroke-width="0.03"/>
  <rect id="px_16_14" x="16" y="14" width="1" height="1" fill="#ffffff" stroke="#cfcfcf" stroke-width="0.03"/>
  <rect id="px_17_14" x="17" y="14" width="1" height="1" fill="#ffffff" stroke="#cfcfcf" stroke-width="0.03"/>
  <rect id="px_0_15" x="0" y="15" width="1" height="1" fill="#ffffff" stroke="#cfcfcf" stroke-width="0.03"/>
  <rect id="px_1_15" x="1" y="15" width="1" height="1" fill="#ffffff" stroke="#cfcfcf" stroke-width="0.03"/>
  <rect id="px_2_15" x="2" y="15" width="1" height="1" fill="#ffffff" stroke="#cfcfcf" stroke-width="0.03"/>
  <rect id="px_3_15" x="3" y="15" width="1" height="1" fill="#ffffff" stroke="#cfcfcf" stroke-width="0.03"/>
  <rect id="px_4_15" x="4" y="15" width="1" height="1" fill="#ffffff" stroke="#cfcfcf" stroke-width="0.03"/>
  <rect id="px_5_15" x="5" y="15" width="1" height="1" fill="#ffffff" stroke="#cfcfcf" stroke-width="0.03"/>
  <rect id="px_6_15" x="6" y="15" width="1" height="1" fill="#ffffff" stroke="#cfcfcf" stroke-width="0.03"/>
  <rect id="px_7_15" x="7" y="15" width="1" height="1" fill="#ffffff" stroke="#cfcfcf" stroke-width="0.03"/>
  <rect id="px_8_15" x="8" y="15" width="1" height="1" fill="#ffffff" stroke="#cfcfcf" stroke-width="0.03"/>
  <rect id="px_9_15" x="9" y="15" width="1" height="1" fill="#ffffff" stroke="#cfcfcf" stroke-width="0.03"/>
  <rect id="px_10_15" x="10" y="15" width="1" height="1" fill="#ffffff" stroke="#cfcfcf" stroke-width="0.03"/>
  <rect id="px_11_15" x="11" y="15" width="1" height="1" fill="#ffffff" stroke="#cfcfcf" stroke-width="0.03"/>
  <rect id="px_12_15" x="12" y="15" width="1" height="1" fill="#ffffff" stroke="#cfcfcf" stroke-width="0.03"/>
  <rect id="px_13_15" x="13" y="15" width="1" height="1" fill="#ffffff" stroke="#cfcfcf" stroke-width="0.03"/>
  <rect id="px_14_15" x="14" y="15" width="1" height="1" fill="#ffffff" stroke="#cfcfcf" stroke-width="0.03"/>
  <rect id="px_15_15" x="15" y="15" width="1" height="1" fill="#ffffff" stroke="#cfcfcf" stroke-width="0.03"/>
  <rect id="px_16_15" x="16" y="15" width="1" height="1" fill="#ffffff" stroke="#cfcfcf" stroke-width="0.03"/>
  <rect id="px_17_15" x="17" y="15" width="1" height="1" fill="#ffffff" stroke="#cfcfcf" stroke-width="0.03"/>
  <rect id="px_0_16" x="0" y="16" width="1" height="1" fill="#ffffff" stroke="#cfcfcf" stroke-width="0.03"/>
  <rect id="px_1_16" x="1" y="16" width="1" height="1" fill="#ffffff" stroke="#cfcfcf" stroke-width="0.03"/>
  <rect id="px_2_16" x="2" y="16" width="1" height="1" fill="#ffffff" stroke="#cfcfcf" stroke-width="0.03"/>
  <rect id="px_3_16" x="3" y="16" width="1" height="1" fill="#ffffff" stroke="#cfcfcf" stroke-width="0.03"/>
  <rect id="px_4_16" x="4" y="16" width="1" height="1" fill="#ffffff" stroke="#cfcfcf" stroke-width="0.03"/>
  <rect id="px_5_16" x="5" y="16" width="1" height="1" fill="#ffffff" stroke="#cfcfcf" stroke-width="0.03"/>
  <rect id="px_6_16" x="6" y="16" width="1" height="1" fill="#ffffff" stroke="#cfcfcf" stroke-width="0.03"/>
  <rect id="px_7_16" x="7" y="16" width="1" height="1" fill="#ffffff" stroke="#cfcfcf" stroke-width="0.03"/>
  <rect id="px_8_16" x="8" y="16" width="1" height="1" fill="#ffffff" stroke="#cfcfcf" stroke-width="0.03"/>
  <rect id="px_9_16" x="9" y="16" width="1" height="1" fill="#ffffff" stroke="#cfcfcf" stroke-width="0.03"/>
  <rect id="px_10_16" x="10" y="16" width="1" height="1" fill="#ffffff" stroke="#cfcfcf" stroke-width="0.03"/>
  <rect id="px_11_16" x="11" y="16" width="1" height="1" fill="#ffffff" stroke="#cfcfcf" stroke-width="0.03"/>
  <rect id="px_12_16" x="12" y="16" width="1" height="1" fill="#ffffff" stroke="#cfcfcf" stroke-width="0.03"/>
  <rect id="px_13_16" x="13" y="16" width="1" height="1" fill="#ffffff" stroke="#cfcfcf" stroke-width="0.03"/>
  <rect id="px_14_16" x="14" y="16" width="1" height="1" fill="#ffffff" stroke="#cfcfcf" stroke-width="0.03"/>
  <rect id="px_15_16" x="15" y="16" width="1" height="1" fill="#ffffff" stroke="#cfcfcf" stroke-width="0.03"/>
  <rect id="px_16_16" x="16" y="16" width="1" height="1" fill="#ffffff" stroke="#cfcfcf" stroke-width="0.03"/>
  <rect id="px_17_16" x="17" y="16" width="1" height="1" fill="#ffffff" stroke="#cfcfcf" stroke-width="0.03"/>
  <rect id="px_0_17" x="0" y="17" width="1" height="1" fill="#ffffff" stroke="#cfcfcf" stroke-width="0.03"/>
  <rect id="px_1_17" x="1" y="17" width="1" height="1" fill="#ffffff" stroke="#cfcfcf" stroke-width="0.03"/>
  <rect id="px_2_17" x="2" y="17" width="1" height="1" fill="#ffffff" stroke="#cfcfcf" stroke-width="0.03"/>
  <rect id="px_3_17" x="3" y="17" width="1" height="1" fill="#ffffff" stroke="#cfcfcf" stroke-width="0.03"/>
  <rect id="px_4_17" x="4" y="17" width="1" height="1" fill="#ffffff" stroke="#cfcfcf" stroke-width="0.03"/>
  <rect id="px_5_17" x="5" y="17" width="1" height="1" fill="#ffffff" stroke="#cfcfcf" stroke-width="0.03"/>
  <rect id="px_6_17" x="6" y="17" width="1" height="1" fill="#ffffff" stroke="#cfcfcf" stroke-width="0.03"/>
  <rect id="px_7_17" x="7" y="17" width="1" height="1" fill="#ffffff" stroke="#cfcfcf" stroke-width="0.03"/>
  <rect id="px_8_17" x="8" y="17" width="1" height="1" fill="#ffffff" stroke="#cfcfcf" stroke-width="0.03"/>
  <rect id="px_9_17" x="9" y="17" width="1" height="1" fill="#ffffff" stroke="#cfcfcf" stroke-width="0.03"/>
  <rect id="px_10_17" x="10" y="17" width="1" height="1" fill="#ffffff" stroke="#cfcfcf" stroke-width="0.03"/>
  <rect id="px_11_17" x="11" y="17" width="1" height="1" fill="#ffffff" stroke="#cfcfcf" stroke-width="0.03"/>
  <rect id="px_12_17" x="12" y="17" width="1" height="1" fill="#ffffff" stroke="#cfcfcf" stroke-width="0.03"/>
  <rect id="px_13_17" x="13" y="17" width="1" height="1" fill="#ffffff" stroke="#cfcfcf" stroke-width="0.03"/>
  <rect id="px_14_17" x="14" y="17" width="1" height="1" fill="#ffffff" stroke="#cfcfcf" stroke-width="0.03"/>
  <rect id="px_15_17" x="15" y="17" width="1" height="1" fill="#ffffff" stroke="#cfcfcf" stroke-width="0.03"/>
  <rect id="px_16_17" x="16" y="17" width="1" height="1" fill="#ffffff" stroke="#cfcfcf" stroke-width="0.03"/>
  <rect id="px_17_17" x="17" y="17" width="1" height="1" fill="#ffffff" stroke="#cfcfcf" stroke-width="0.03"/>
</svg>